<mxfile host="app.diagrams.net" modified="2023-11-14T10:03:18.291Z" agent="Mozilla/5.0 (Windows NT 10.0; Win64; x64) AppleWebKit/537.36 (KHTML, like Gecko) Chrome/118.0.0.0 Safari/537.36" etag="qpG-ykKgwkEyKn59xh9u" version="22.1.0" type="google" pages="4">
  <diagram name="default" id="qmnWy2MAJ4uXKFbj1wN7">
    <mxGraphModel dx="1434" dy="758" grid="1" gridSize="10" guides="1" tooltips="1" connect="1" arrows="1" fold="1" page="1" pageScale="1" pageWidth="1169" pageHeight="1654" math="0" shadow="0">
      <root>
        <mxCell id="0" />
        <mxCell id="1" parent="0" />
        <mxCell id="ZJCJz27UGavg2DLTm2-K-13" value="" style="rounded=0;whiteSpace=wrap;html=1;horizontal=1;labelPosition=center;verticalLabelPosition=middle;align=center;verticalAlign=top;dashed=1;strokeColor=#B3B3B3;strokeWidth=2;dashPattern=1 1;" parent="1" vertex="1">
          <mxGeometry x="41" y="420" width="800" height="660" as="geometry" />
        </mxCell>
        <mxCell id="c8Akek_zTzWnCCOaM-yN-3" value="vnet-hub-uks-001&lt;br&gt;172.31.0.0/16" style="rounded=0;whiteSpace=wrap;html=1;horizontal=1;labelPosition=center;verticalLabelPosition=middle;align=center;verticalAlign=top;dashed=1;strokeColor=#66B2FF;strokeWidth=2;" parent="1" vertex="1">
          <mxGeometry x="61" y="439" width="760" height="280" as="geometry" />
        </mxCell>
        <mxCell id="c8Akek_zTzWnCCOaM-yN-7" value="" style="aspect=fixed;html=1;points=[];align=center;image;fontSize=12;image=img/lib/azure2/networking/Virtual_Networks_Classic.svg;" parent="1" vertex="1">
          <mxGeometry x="67.5" y="449" width="33.5" height="20" as="geometry" />
        </mxCell>
        <mxCell id="c8Akek_zTzWnCCOaM-yN-9" value="vnet-nfo-uks-001&lt;br&gt;10.1.0.0/16" style="rounded=0;whiteSpace=wrap;html=1;horizontal=1;labelPosition=center;verticalLabelPosition=middle;align=center;verticalAlign=top;strokeColor=#66B2FF;dashed=1;strokeWidth=2;" parent="1" vertex="1">
          <mxGeometry x="62" y="780" width="280" height="260" as="geometry" />
        </mxCell>
        <mxCell id="c8Akek_zTzWnCCOaM-yN-11" value="snet-nfo-uks-001&lt;br&gt;10.1.0.0/24" style="rounded=0;whiteSpace=wrap;html=1;fillColor=#f5f5f5;strokeColor=#B3B3B3;verticalAlign=top;fontColor=#333333;" parent="1" vertex="1">
          <mxGeometry x="102" y="820" width="200" height="170" as="geometry" />
        </mxCell>
        <mxCell id="c8Akek_zTzWnCCOaM-yN-12" value="" style="aspect=fixed;html=1;points=[];align=center;image;fontSize=12;image=img/lib/azure2/networking/Virtual_Networks_Classic.svg;" parent="1" vertex="1">
          <mxGeometry x="75" y="790" width="33.5" height="20" as="geometry" />
        </mxCell>
        <mxCell id="c8Akek_zTzWnCCOaM-yN-13" value="vnet-aaa-001&lt;br&gt;10.2.0.0/16" style="rounded=0;whiteSpace=wrap;html=1;horizontal=1;labelPosition=center;verticalLabelPosition=middle;align=center;verticalAlign=top;strokeColor=#66B2FF;dashed=1;strokeWidth=2;" parent="1" vertex="1">
          <mxGeometry x="541" y="780" width="280" height="260" as="geometry" />
        </mxCell>
        <mxCell id="c8Akek_zTzWnCCOaM-yN-15" value="snet-aaa-001&lt;br&gt;10.2.0.0/24" style="rounded=0;whiteSpace=wrap;html=1;fillColor=#f5f5f5;strokeColor=#B3B3B3;verticalAlign=top;fontColor=#333333;" parent="1" vertex="1">
          <mxGeometry x="591" y="820" width="190" height="170" as="geometry" />
        </mxCell>
        <mxCell id="c8Akek_zTzWnCCOaM-yN-16" value="" style="aspect=fixed;html=1;points=[];align=center;image;fontSize=12;image=img/lib/azure2/networking/Virtual_Networks_Classic.svg;" parent="1" vertex="1">
          <mxGeometry x="554" y="790" width="33.5" height="20" as="geometry" />
        </mxCell>
        <mxCell id="c8Akek_zTzWnCCOaM-yN-20" value="gwnet-hub-uks-001&lt;br&gt;172.31.255.0/24" style="rounded=0;whiteSpace=wrap;html=1;fillColor=#f5f5f5;strokeColor=#B3B3B3;verticalAlign=top;fontColor=#333333;" parent="1" vertex="1">
          <mxGeometry x="571" y="479" width="200" height="186" as="geometry" />
        </mxCell>
        <mxCell id="c8Akek_zTzWnCCOaM-yN-22" value="peer-hub-nfo" style="text;strokeColor=none;align=center;fillColor=none;html=1;verticalAlign=middle;whiteSpace=wrap;rounded=0;" parent="1" vertex="1">
          <mxGeometry x="92" y="735" width="110" height="30" as="geometry" />
        </mxCell>
        <mxCell id="c8Akek_zTzWnCCOaM-yN-23" value="peer-hub-mcy" style="text;strokeColor=none;align=center;fillColor=none;html=1;verticalAlign=middle;whiteSpace=wrap;rounded=0;" parent="1" vertex="1">
          <mxGeometry x="681" y="735" width="110" height="30" as="geometry" />
        </mxCell>
        <mxCell id="c8Akek_zTzWnCCOaM-yN-24" value="vm-nfo-uks-001&lt;br&gt;10.1.0.4&lt;br&gt;&lt;i&gt;nfo1&lt;/i&gt;" style="aspect=fixed;html=1;points=[];align=center;image;fontSize=12;image=img/lib/azure2/compute/Virtual_Machine.svg;labelBackgroundColor=none;" parent="1" vertex="1">
          <mxGeometry x="136.13" y="882.5" width="37.74" height="35" as="geometry" />
        </mxCell>
        <mxCell id="c8Akek_zTzWnCCOaM-yN-25" value="vm-aaa-001&lt;br&gt;10.2.0.4&lt;br&gt;" style="aspect=fixed;html=1;points=[];align=center;image;fontSize=12;image=img/lib/azure2/compute/Virtual_Machine.svg;labelBackgroundColor=none;" parent="1" vertex="1">
          <mxGeometry x="662.13" y="882.5" width="37.74" height="35" as="geometry" />
        </mxCell>
        <mxCell id="4gWeTPq2beBQv8NxObEz-3" value="nsg-nfo-uks-001" style="aspect=fixed;html=1;points=[];align=center;image;fontSize=12;image=img/lib/azure2/networking/Network_Security_Groups.svg;dashed=1;strokeColor=#66B2FF;strokeWidth=2;" parent="1" vertex="1">
          <mxGeometry x="92" y="966" width="39.53" height="48" as="geometry" />
        </mxCell>
        <mxCell id="4gWeTPq2beBQv8NxObEz-4" value="nsg-aaa-001" style="aspect=fixed;html=1;points=[];align=center;image;fontSize=12;image=img/lib/azure2/networking/Network_Security_Groups.svg;dashed=1;strokeColor=#66B2FF;strokeWidth=2;" parent="1" vertex="1">
          <mxGeometry x="581" y="966" width="39.53" height="48" as="geometry" />
        </mxCell>
        <mxCell id="ZJCJz27UGavg2DLTm2-K-2" value="c3j.lab" style="aspect=fixed;html=1;points=[];align=center;image;fontSize=12;image=img/lib/azure2/networking/DNS_Zones.svg;" parent="1" vertex="1">
          <mxGeometry x="649" y="1090" width="44" height="44" as="geometry" />
        </mxCell>
        <mxCell id="ZJCJz27UGavg2DLTm2-K-14" value="sub-test-001" style="verticalLabelPosition=bottom;html=1;verticalAlign=top;align=center;strokeColor=none;fillColor=#00BEF2;shape=mxgraph.azure.azure_subscription;dashed=1;dashPattern=1 1;" parent="1" vertex="1">
          <mxGeometry x="560" y="1090" width="50" height="35" as="geometry" />
        </mxCell>
        <mxCell id="ZJCJz27UGavg2DLTm2-K-23" value="" style="endArrow=none;html=1;rounded=0;fontColor=#999999;entryX=0.25;entryY=1;entryDx=0;entryDy=0;strokeWidth=2;strokeColor=#99CCFF;" parent="1" edge="1">
          <mxGeometry width="50" height="50" relative="1" as="geometry">
            <mxPoint x="199" y="780" as="sourcePoint" />
            <mxPoint x="199" y="719" as="targetPoint" />
          </mxGeometry>
        </mxCell>
        <mxCell id="ZJCJz27UGavg2DLTm2-K-25" value="" style="endArrow=none;html=1;rounded=0;fontColor=#999999;entryX=0.25;entryY=1;entryDx=0;entryDy=0;strokeWidth=2;strokeColor=#99CCFF;" parent="1" edge="1">
          <mxGeometry width="50" height="50" relative="1" as="geometry">
            <mxPoint x="681" y="780" as="sourcePoint" />
            <mxPoint x="681" y="719" as="targetPoint" />
          </mxGeometry>
        </mxCell>
        <mxCell id="bTXRQun2XbnCgDHhW8l7-1" value="snet-hub-uks-001&lt;br&gt;172.31.1.0/24" style="rounded=0;whiteSpace=wrap;html=1;fillColor=#f5f5f5;strokeColor=#B3B3B3;verticalAlign=top;fontColor=#333333;" parent="1" vertex="1">
          <mxGeometry x="111" y="479" width="200" height="186" as="geometry" />
        </mxCell>
        <mxCell id="bTXRQun2XbnCgDHhW8l7-3" value="nsg-hub-uks-001" style="aspect=fixed;html=1;points=[];align=center;image;fontSize=12;image=img/lib/azure2/networking/Network_Security_Groups.svg;dashed=1;strokeColor=#66B2FF;strokeWidth=2;" parent="1" vertex="1">
          <mxGeometry x="101" y="642" width="39.53" height="48" as="geometry" />
        </mxCell>
        <mxCell id="bTXRQun2XbnCgDHhW8l7-4" value="NVA" style="text;html=1;strokeColor=none;fillColor=none;align=center;verticalAlign=middle;whiteSpace=wrap;rounded=0;fontStyle=2;fontColor=#999999;" parent="1" vertex="1">
          <mxGeometry x="161" y="641" width="100" height="30" as="geometry" />
        </mxCell>
        <mxCell id="bTXRQun2XbnCgDHhW8l7-6" value="Gateway Subnet" style="text;html=1;strokeColor=none;fillColor=none;align=center;verticalAlign=middle;whiteSpace=wrap;rounded=0;fontStyle=2;fontColor=#999999;" parent="1" vertex="1">
          <mxGeometry x="621" y="641" width="100" height="30" as="geometry" />
        </mxCell>
        <mxCell id="HPBWZSrddO34f2WdvZlg-1" value="&lt;font color=&quot;#ffffff&quot;&gt;UK South Region&lt;/font&gt;" style="rounded=0;whiteSpace=wrap;html=1;strokeColor=none;fillColor=#0066CC;" parent="1" vertex="1">
          <mxGeometry x="40.75" y="1060" width="799.25" height="20" as="geometry" />
        </mxCell>
        <mxCell id="HPBWZSrddO34f2WdvZlg-2" value="vm-nfo-uks-002&lt;br&gt;10.1.0.5&lt;br&gt;&lt;i&gt;nfo2&lt;/i&gt;" style="aspect=fixed;html=1;points=[];align=center;image;fontSize=12;image=img/lib/azure2/compute/Virtual_Machine.svg;labelBackgroundColor=none;" parent="1" vertex="1">
          <mxGeometry x="232.88" y="882.5" width="37.74" height="35" as="geometry" />
        </mxCell>
        <mxCell id="HPBWZSrddO34f2WdvZlg-44" value="&lt;b&gt;&lt;font color=&quot;#ffffff&quot;&gt;INTERNET&lt;/font&gt;&lt;/b&gt;" style="rounded=0;whiteSpace=wrap;html=1;horizontal=1;labelPosition=center;verticalLabelPosition=middle;align=center;verticalAlign=middle;dashed=1;strokeColor=#66B2FF;strokeWidth=2;fontSize=14;fillColor=#66B2FF;" parent="1" vertex="1">
          <mxGeometry x="41" y="360" width="1159" height="40" as="geometry" />
        </mxCell>
        <mxCell id="HPBWZSrddO34f2WdvZlg-45" value="c3j.co.uk" style="aspect=fixed;html=1;points=[];align=center;image;fontSize=12;image=img/lib/azure2/networking/DNS_Zones.svg;" parent="1" vertex="1">
          <mxGeometry x="598.5" y="280" width="44" height="44" as="geometry" />
        </mxCell>
        <mxCell id="HPBWZSrddO34f2WdvZlg-49" value="&lt;font style=&quot;font-size: 10px;&quot;&gt;20.90.241.148&lt;/font&gt;" style="text;strokeColor=none;align=center;fillColor=none;html=1;verticalAlign=middle;whiteSpace=wrap;rounded=0;fontStyle=1;fontColor=#EA6B66;" parent="1" vertex="1">
          <mxGeometry x="100" y="862.5" width="110" height="20" as="geometry" />
        </mxCell>
        <mxCell id="PKf64g40JzfhvCYDE0aJ-1" value="vm-hub-uks-001&lt;br&gt;172.31.1.4&lt;br&gt;&lt;i&gt;hub1&lt;/i&gt;" style="aspect=fixed;html=1;points=[];align=center;image;fontSize=12;image=img/lib/azure2/compute/Virtual_Machine.svg;labelBackgroundColor=none;" parent="1" vertex="1">
          <mxGeometry x="192.13" y="548.5" width="37.74" height="35" as="geometry" />
        </mxCell>
      </root>
    </mxGraphModel>
  </diagram>
  <diagram id="GGPXkFB_Qrd2MST3pcKg" name="blocks">
    <mxGraphModel grid="1" page="1" gridSize="10" guides="1" tooltips="1" connect="1" arrows="1" fold="1" pageScale="1" pageWidth="827" pageHeight="1169" math="0" shadow="0">
      <root>
        <mxCell id="0" />
        <mxCell id="1" parent="0" />
        <mxCell id="KDuh5kxUbU1WUoTDR_aE-1" value="vnet-bbb-001&lt;br&gt;10.2.0.0/16" style="rounded=0;whiteSpace=wrap;html=1;horizontal=1;labelPosition=center;verticalLabelPosition=middle;align=center;verticalAlign=top;strokeColor=#66B2FF;dashed=1;strokeWidth=2;" vertex="1" parent="1">
          <mxGeometry x="80" y="480" width="280" height="260" as="geometry" />
        </mxCell>
        <mxCell id="KDuh5kxUbU1WUoTDR_aE-2" value="snet-bbb-001&lt;br&gt;10.2.0.0/24" style="rounded=0;whiteSpace=wrap;html=1;fillColor=#f5f5f5;strokeColor=#B3B3B3;verticalAlign=top;fontColor=#333333;" vertex="1" parent="1">
          <mxGeometry x="130" y="520" width="190" height="170" as="geometry" />
        </mxCell>
        <mxCell id="KDuh5kxUbU1WUoTDR_aE-3" value="" style="aspect=fixed;html=1;points=[];align=center;image;fontSize=12;image=img/lib/azure2/networking/Virtual_Networks_Classic.svg;" vertex="1" parent="1">
          <mxGeometry x="93" y="490" width="33.5" height="20" as="geometry" />
        </mxCell>
        <mxCell id="KDuh5kxUbU1WUoTDR_aE-4" value="vm-bbb-001&lt;br&gt;10.2.0.10" style="aspect=fixed;html=1;points=[];align=center;image;fontSize=12;image=img/lib/azure2/compute/Virtual_Machine.svg;labelBackgroundColor=none;" vertex="1" parent="1">
          <mxGeometry x="201.13" y="582.5" width="37.74" height="35" as="geometry" />
        </mxCell>
        <mxCell id="KDuh5kxUbU1WUoTDR_aE-5" value="nsg-bbb-001" style="aspect=fixed;html=1;points=[];align=center;image;fontSize=12;image=img/lib/azure2/networking/Network_Security_Groups.svg;dashed=1;strokeColor=#66B2FF;strokeWidth=2;" vertex="1" parent="1">
          <mxGeometry x="120" y="666" width="39.53" height="48" as="geometry" />
        </mxCell>
        <mxCell id="drD8lHn-Yx2FKxkfe0zV-1" value="&lt;font color=&quot;#ffffff&quot;&gt;UK South Region&lt;/font&gt;" style="rounded=0;whiteSpace=wrap;html=1;strokeColor=none;fillColor=#0066CC;" vertex="1" parent="1">
          <mxGeometry x="80" y="740" width="280" height="20" as="geometry" />
        </mxCell>
        <mxCell id="YoefE3QuA8gDWA0fGaig-1" value="vnet-ccc-001&lt;br&gt;10.3.0.0/16" style="rounded=0;whiteSpace=wrap;html=1;horizontal=1;labelPosition=center;verticalLabelPosition=middle;align=center;verticalAlign=top;strokeColor=#66B2FF;dashed=1;strokeWidth=2;" vertex="1" parent="1">
          <mxGeometry x="680" y="480" width="280" height="260" as="geometry" />
        </mxCell>
        <mxCell id="YoefE3QuA8gDWA0fGaig-2" value="snet-ccc-001&lt;br&gt;10.3.0.0/24" style="rounded=0;whiteSpace=wrap;html=1;fillColor=#f5f5f5;strokeColor=#B3B3B3;verticalAlign=top;fontColor=#333333;" vertex="1" parent="1">
          <mxGeometry x="730" y="520" width="190" height="170" as="geometry" />
        </mxCell>
        <mxCell id="YoefE3QuA8gDWA0fGaig-3" value="" style="aspect=fixed;html=1;points=[];align=center;image;fontSize=12;image=img/lib/azure2/networking/Virtual_Networks_Classic.svg;" vertex="1" parent="1">
          <mxGeometry x="693" y="490" width="33.5" height="20" as="geometry" />
        </mxCell>
        <mxCell id="YoefE3QuA8gDWA0fGaig-4" value="vm-ccc-001&lt;br&gt;10.3.0.10" style="aspect=fixed;html=1;points=[];align=center;image;fontSize=12;image=img/lib/azure2/compute/Virtual_Machine.svg;labelBackgroundColor=none;" vertex="1" parent="1">
          <mxGeometry x="801.13" y="582.5" width="37.74" height="35" as="geometry" />
        </mxCell>
        <mxCell id="YoefE3QuA8gDWA0fGaig-5" value="nsg-ccc-001" style="aspect=fixed;html=1;points=[];align=center;image;fontSize=12;image=img/lib/azure2/networking/Network_Security_Groups.svg;dashed=1;strokeColor=#66B2FF;strokeWidth=2;" vertex="1" parent="1">
          <mxGeometry x="720" y="666" width="39.53" height="48" as="geometry" />
        </mxCell>
        <mxCell id="YoefE3QuA8gDWA0fGaig-6" value="&lt;font color=&quot;#ffffff&quot;&gt;UK South Region&lt;/font&gt;" style="rounded=0;whiteSpace=wrap;html=1;strokeColor=none;fillColor=#0066CC;" vertex="1" parent="1">
          <mxGeometry x="680" y="740" width="280" height="20" as="geometry" />
        </mxCell>
        <mxCell id="t1aIsPZd6sVZ_ieQkTPP-1" value="vnet-ddd-001&lt;br&gt;10.4.0.0/16" style="rounded=0;whiteSpace=wrap;html=1;horizontal=1;labelPosition=center;verticalLabelPosition=middle;align=center;verticalAlign=top;strokeColor=#66B2FF;dashed=1;strokeWidth=2;" vertex="1" parent="1">
          <mxGeometry x="80" y="960" width="280" height="260" as="geometry" />
        </mxCell>
        <mxCell id="t1aIsPZd6sVZ_ieQkTPP-2" value="snet-ddd-001&lt;br&gt;10.4.0.0/24" style="rounded=0;whiteSpace=wrap;html=1;fillColor=#f5f5f5;strokeColor=#B3B3B3;verticalAlign=top;fontColor=#333333;" vertex="1" parent="1">
          <mxGeometry x="130" y="1000" width="190" height="170" as="geometry" />
        </mxCell>
        <mxCell id="t1aIsPZd6sVZ_ieQkTPP-3" value="" style="aspect=fixed;html=1;points=[];align=center;image;fontSize=12;image=img/lib/azure2/networking/Virtual_Networks_Classic.svg;" vertex="1" parent="1">
          <mxGeometry x="93" y="970" width="33.5" height="20" as="geometry" />
        </mxCell>
        <mxCell id="t1aIsPZd6sVZ_ieQkTPP-4" value="vm-ddd-001&lt;br&gt;10.4.0.10" style="aspect=fixed;html=1;points=[];align=center;image;fontSize=12;image=img/lib/azure2/compute/Virtual_Machine.svg;labelBackgroundColor=none;" vertex="1" parent="1">
          <mxGeometry x="201.13" y="1062.5" width="37.74" height="35" as="geometry" />
        </mxCell>
        <mxCell id="t1aIsPZd6sVZ_ieQkTPP-5" value="nsg-ddd-001" style="aspect=fixed;html=1;points=[];align=center;image;fontSize=12;image=img/lib/azure2/networking/Network_Security_Groups.svg;dashed=1;strokeColor=#66B2FF;strokeWidth=2;" vertex="1" parent="1">
          <mxGeometry x="120" y="1146" width="39.53" height="48" as="geometry" />
        </mxCell>
        <mxCell id="t1aIsPZd6sVZ_ieQkTPP-6" value="&lt;font color=&quot;#ffffff&quot;&gt;UK South Region&lt;/font&gt;" style="rounded=0;whiteSpace=wrap;html=1;strokeColor=none;fillColor=#0066CC;" vertex="1" parent="1">
          <mxGeometry x="80" y="1220" width="280" height="20" as="geometry" />
        </mxCell>
        <mxCell id="t1aIsPZd6sVZ_ieQkTPP-9" value="vnet-eee-001&lt;br&gt;10.5.0.0/16" style="rounded=0;whiteSpace=wrap;html=1;horizontal=1;labelPosition=center;verticalLabelPosition=middle;align=center;verticalAlign=top;strokeColor=#66B2FF;dashed=1;strokeWidth=2;" vertex="1" parent="1">
          <mxGeometry x="680" y="960" width="280" height="260" as="geometry" />
        </mxCell>
        <mxCell id="t1aIsPZd6sVZ_ieQkTPP-10" value="snet-eee-001&lt;br&gt;10.5.0.0/24" style="rounded=0;whiteSpace=wrap;html=1;fillColor=#f5f5f5;strokeColor=#B3B3B3;verticalAlign=top;fontColor=#333333;" vertex="1" parent="1">
          <mxGeometry x="730" y="1000" width="190" height="170" as="geometry" />
        </mxCell>
        <mxCell id="t1aIsPZd6sVZ_ieQkTPP-11" value="" style="aspect=fixed;html=1;points=[];align=center;image;fontSize=12;image=img/lib/azure2/networking/Virtual_Networks_Classic.svg;" vertex="1" parent="1">
          <mxGeometry x="693" y="970" width="33.5" height="20" as="geometry" />
        </mxCell>
        <mxCell id="t1aIsPZd6sVZ_ieQkTPP-12" value="vm-eee-001&lt;br&gt;10.5.0.10" style="aspect=fixed;html=1;points=[];align=center;image;fontSize=12;image=img/lib/azure2/compute/Virtual_Machine.svg;labelBackgroundColor=none;" vertex="1" parent="1">
          <mxGeometry x="801.13" y="1062.5" width="37.74" height="35" as="geometry" />
        </mxCell>
        <mxCell id="t1aIsPZd6sVZ_ieQkTPP-13" value="nsg-eee-001" style="aspect=fixed;html=1;points=[];align=center;image;fontSize=12;image=img/lib/azure2/networking/Network_Security_Groups.svg;dashed=1;strokeColor=#66B2FF;strokeWidth=2;" vertex="1" parent="1">
          <mxGeometry x="720" y="1146" width="39.53" height="48" as="geometry" />
        </mxCell>
        <mxCell id="t1aIsPZd6sVZ_ieQkTPP-14" value="&lt;font color=&quot;#ffffff&quot;&gt;UK South Region&lt;/font&gt;" style="rounded=0;whiteSpace=wrap;html=1;strokeColor=none;fillColor=#0066CC;" vertex="1" parent="1">
          <mxGeometry x="680" y="1220" width="280" height="20" as="geometry" />
        </mxCell>
        <mxCell id="SmXgA5qWSMC00zm8cpOY-1" value="&lt;font face=&quot;Helvetica&quot;&gt;rg-bbb-001&lt;/font&gt;" style="image;aspect=fixed;html=1;points=[];align=center;fontSize=12;image=img/lib/azure2/general/Resource_Groups.svg;sketch=1;hachureGap=4;jiggle=2;curveFitting=1;fontFamily=Architects Daughter;fontSource=https%3A%2F%2Ffonts.googleapis.com%2Fcss%3Ffamily%3DArchitects%2BDaughter;" vertex="1" parent="1">
          <mxGeometry x="90.37" y="770" width="36.13" height="34" as="geometry" />
        </mxCell>
      </root>
    </mxGraphModel>
  </diagram>
  <diagram id="IBCQb8FsxJoEqhaHN76X" name="vnet-subnet-nsg-vm">
    <mxGraphModel grid="1" page="1" gridSize="10" guides="1" tooltips="1" connect="1" arrows="1" fold="1" pageScale="1" pageWidth="827" pageHeight="1169" math="0" shadow="0">
      <root>
        <mxCell id="0" />
        <mxCell id="1" parent="0" />
        <mxCell id="Omlk3rY_Vriu9T7HJizj-1" value="vnet-bbb-001&lt;br&gt;10.2.0.0/16" style="rounded=0;whiteSpace=wrap;html=1;horizontal=1;labelPosition=center;verticalLabelPosition=middle;align=left;verticalAlign=top;strokeColor=#66B2FF;dashed=1;strokeWidth=2;spacingLeft=5;" vertex="1" parent="1">
          <mxGeometry x="40" y="40" width="300" height="290" as="geometry" />
        </mxCell>
        <mxCell id="Omlk3rY_Vriu9T7HJizj-2" value="snet-bbb-001&lt;br&gt;10.2.0.0/24" style="rounded=0;whiteSpace=wrap;html=1;fillColor=#f5f5f5;strokeColor=#B3B3B3;verticalAlign=top;fontColor=#333333;align=left;spacingLeft=5;" vertex="1" parent="1">
          <mxGeometry x="85" y="80" width="210" height="200" as="geometry" />
        </mxCell>
        <mxCell id="Omlk3rY_Vriu9T7HJizj-3" value="" style="aspect=fixed;html=1;points=[];align=center;image;fontSize=12;image=img/lib/azure2/networking/Virtual_Networks_Classic.svg;" vertex="1" parent="1">
          <mxGeometry x="300" y="50" width="33.5" height="20" as="geometry" />
        </mxCell>
        <mxCell id="Omlk3rY_Vriu9T7HJizj-4" value="vm-bbb-001&lt;br&gt;10.2.0.10" style="aspect=fixed;html=1;points=[];align=right;image;fontSize=12;image=img/lib/azure2/compute/Virtual_Machine.svg;labelBackgroundColor=none;labelPosition=left;verticalLabelPosition=middle;verticalAlign=middle;spacingRight=4;" vertex="1" parent="1">
          <mxGeometry x="161.13" y="167.5" width="37.74" height="35" as="geometry" />
        </mxCell>
        <mxCell id="Omlk3rY_Vriu9T7HJizj-5" value="nsg-bbb-001" style="aspect=fixed;html=1;points=[];align=center;image;fontSize=12;image=img/lib/azure2/networking/Network_Security_Groups.svg;dashed=1;strokeColor=#66B2FF;strokeWidth=2;" vertex="1" parent="1">
          <mxGeometry x="76" y="263" width="28" height="34" as="geometry" />
        </mxCell>
        <mxCell id="Omlk3rY_Vriu9T7HJizj-6" value="&lt;font color=&quot;#ffffff&quot;&gt;UK South Region&lt;/font&gt;" style="rounded=0;whiteSpace=wrap;html=1;strokeColor=none;fillColor=#0066CC;" vertex="1" parent="1">
          <mxGeometry x="40" y="330" width="300" height="20" as="geometry" />
        </mxCell>
        <mxCell id="Omlk3rY_Vriu9T7HJizj-7" value="&lt;font face=&quot;Helvetica&quot;&gt;rg-bbb-001&lt;/font&gt;" style="image;aspect=fixed;html=1;points=[];align=center;fontSize=12;image=img/lib/azure2/general/Resource_Groups.svg;sketch=1;hachureGap=4;jiggle=2;curveFitting=1;fontFamily=Architects Daughter;fontSource=https%3A%2F%2Ffonts.googleapis.com%2Fcss%3Ffamily%3DArchitects%2BDaughter;" vertex="1" parent="1">
          <mxGeometry x="69.87" y="360" width="36.13" height="34" as="geometry" />
        </mxCell>
        <mxCell id="Eca5ZuWjLMEcawLpc1R9-1" value="pip-vm-bbb-001&lt;br&gt;x.x.x.x" style="text;strokeColor=none;align=center;fillColor=none;html=1;verticalAlign=middle;whiteSpace=wrap;rounded=0;fontColor=#CC0000;" vertex="1" parent="1">
          <mxGeometry x="125" y="210" width="110" height="30" as="geometry" />
        </mxCell>
      </root>
    </mxGraphModel>
  </diagram>
  <diagram id="ucwIxoyxYJhpS6II2VAN" name="external-lb-and-vms">
    <mxGraphModel grid="1" page="1" gridSize="10" guides="1" tooltips="1" connect="1" arrows="1" fold="1" pageScale="1" pageWidth="827" pageHeight="1169" math="0" shadow="0">
      <root>
        <mxCell id="0" />
        <mxCell id="1" parent="0" />
        <mxCell id="DTx5_if5TaOQmehZSOv1-1" value="vnet-ccc-001&lt;br&gt;10.3.0.0/16" style="rounded=0;whiteSpace=wrap;html=1;horizontal=1;labelPosition=center;verticalLabelPosition=middle;align=left;verticalAlign=top;strokeColor=#66B2FF;dashed=1;strokeWidth=2;spacingLeft=5;" vertex="1" parent="1">
          <mxGeometry x="40" y="40" width="440" height="290" as="geometry" />
        </mxCell>
        <mxCell id="DTx5_if5TaOQmehZSOv1-2" value="snet-ccc-001&lt;br&gt;10.3.0.0/24" style="rounded=0;whiteSpace=wrap;html=1;fillColor=#f5f5f5;strokeColor=#B3B3B3;verticalAlign=top;fontColor=#333333;align=left;spacingLeft=5;" vertex="1" parent="1">
          <mxGeometry x="78.87" y="80" width="361.13" height="200" as="geometry" />
        </mxCell>
        <mxCell id="DTx5_if5TaOQmehZSOv1-3" value="" style="aspect=fixed;html=1;points=[];align=center;image;fontSize=12;image=img/lib/azure2/networking/Virtual_Networks_Classic.svg;" vertex="1" parent="1">
          <mxGeometry x="436" y="50" width="33.5" height="20" as="geometry" />
        </mxCell>
        <mxCell id="DTx5_if5TaOQmehZSOv1-4" value="vm-ccc-001&lt;br&gt;10.3.0.10" style="aspect=fixed;html=1;points=[];align=right;image;fontSize=12;image=img/lib/azure2/compute/Virtual_Machine.svg;labelBackgroundColor=none;labelPosition=left;verticalLabelPosition=middle;verticalAlign=middle;spacingRight=4;" vertex="1" parent="1">
          <mxGeometry x="155" y="192.5" width="37.74" height="35" as="geometry" />
        </mxCell>
        <mxCell id="DTx5_if5TaOQmehZSOv1-5" value="nsg-ccc-001" style="aspect=fixed;html=1;points=[];align=center;image;fontSize=12;image=img/lib/azure2/networking/Network_Security_Groups.svg;dashed=1;strokeColor=#66B2FF;strokeWidth=2;" vertex="1" parent="1">
          <mxGeometry x="69.87" y="263" width="28" height="34" as="geometry" />
        </mxCell>
        <mxCell id="DTx5_if5TaOQmehZSOv1-6" value="&lt;font color=&quot;#ffffff&quot;&gt;UK South Region&lt;/font&gt;" style="rounded=0;whiteSpace=wrap;html=1;strokeColor=none;fillColor=#0066CC;" vertex="1" parent="1">
          <mxGeometry x="40" y="330" width="440" height="20" as="geometry" />
        </mxCell>
        <mxCell id="DTx5_if5TaOQmehZSOv1-7" value="&lt;font face=&quot;Helvetica&quot;&gt;rg-ccc-001&lt;/font&gt;" style="image;aspect=fixed;html=1;points=[];align=center;fontSize=12;image=img/lib/azure2/general/Resource_Groups.svg;sketch=1;hachureGap=4;jiggle=2;curveFitting=1;fontFamily=Architects Daughter;fontSource=https%3A%2F%2Ffonts.googleapis.com%2Fcss%3Ffamily%3DArchitects%2BDaughter;" vertex="1" parent="1">
          <mxGeometry x="64.87" y="360" width="36.13" height="34" as="geometry" />
        </mxCell>
        <mxCell id="DTx5_if5TaOQmehZSOv1-8" value="pip-vm-ccc-001&lt;br&gt;x.x.x.x" style="text;strokeColor=none;align=center;fillColor=none;html=1;verticalAlign=middle;whiteSpace=wrap;rounded=0;fontColor=#CC0000;" vertex="1" parent="1">
          <mxGeometry x="118.87" y="235" width="110" height="30" as="geometry" />
        </mxCell>
        <mxCell id="DTx5_if5TaOQmehZSOv1-15" value="vm-ccc-002&lt;br&gt;10.3.0.11" style="aspect=fixed;html=1;points=[];align=left;image;fontSize=12;image=img/lib/azure2/compute/Virtual_Machine.svg;labelBackgroundColor=none;labelPosition=right;verticalLabelPosition=middle;verticalAlign=middle;spacingRight=4;spacingLeft=4;" vertex="1" parent="1">
          <mxGeometry x="323" y="192.5" width="37.74" height="35" as="geometry" />
        </mxCell>
        <mxCell id="DTx5_if5TaOQmehZSOv1-16" value="pip-vm-ccc-002&lt;br&gt;x.x.x.x" style="text;strokeColor=none;align=center;fillColor=none;html=1;verticalAlign=middle;whiteSpace=wrap;rounded=0;fontColor=#CC0000;" vertex="1" parent="1">
          <mxGeometry x="286.87" y="235" width="110" height="30" as="geometry" />
        </mxCell>
        <mxCell id="DTx5_if5TaOQmehZSOv1-20" value="" style="image;aspect=fixed;html=1;points=[];align=center;fontSize=12;image=img/lib/azure2/networking/Load_Balancers.svg;sketch=1;hachureGap=4;jiggle=2;curveFitting=1;fontFamily=Architects Daughter;fontSource=https%3A%2F%2Ffonts.googleapis.com%2Fcss%3Ffamily%3DArchitects%2BDaughter;" vertex="1" parent="1">
          <mxGeometry x="232.87" y="122" width="52" height="52" as="geometry" />
        </mxCell>
        <mxCell id="DTx5_if5TaOQmehZSOv1-21" value="pip-elb-ccc-001&lt;br&gt;x.x.x.x" style="text;strokeColor=none;align=center;fillColor=none;html=1;verticalAlign=middle;whiteSpace=wrap;rounded=0;fontColor=#CC0000;" vertex="1" parent="1">
          <mxGeometry x="202.74" y="88" width="110" height="30" as="geometry" />
        </mxCell>
        <mxCell id="zOTvgHeSVjY2xNqSB7hg-4" value="" style="shape=flexArrow;endArrow=classic;html=1;rounded=0;hachureGap=4;fontFamily=Architects Daughter;fontSource=https%3A%2F%2Ffonts.googleapis.com%2Fcss%3Ffamily%3DArchitects%2BDaughter;fontSize=16;endWidth=5.9167117360735535;endSize=4.0162790697674415;width=2.558139534883721;fillColor=#000000;" edge="1" parent="1">
          <mxGeometry width="50" height="50" relative="1" as="geometry">
            <mxPoint x="228.87" y="150" as="sourcePoint" />
            <mxPoint x="188.87" y="185" as="targetPoint" />
          </mxGeometry>
        </mxCell>
        <mxCell id="zOTvgHeSVjY2xNqSB7hg-9" value="" style="shape=flexArrow;endArrow=classic;html=1;rounded=0;hachureGap=4;fontFamily=Architects Daughter;fontSource=https%3A%2F%2Ffonts.googleapis.com%2Fcss%3Ffamily%3DArchitects%2BDaughter;fontSize=16;endWidth=5.9167117360735535;endSize=4.0162790697674415;width=2.558139534883721;fillColor=#000000;" edge="1" parent="1">
          <mxGeometry width="50" height="50" relative="1" as="geometry">
            <mxPoint x="289" y="150" as="sourcePoint" />
            <mxPoint x="329" y="185" as="targetPoint" />
          </mxGeometry>
        </mxCell>
        <mxCell id="zOTvgHeSVjY2xNqSB7hg-10" value="&lt;font color=&quot;#000000&quot;&gt;elb-ccc-001&lt;/font&gt;" style="text;strokeColor=none;align=center;fillColor=none;html=1;verticalAlign=middle;whiteSpace=wrap;rounded=0;fontColor=#CC0000;" vertex="1" parent="1">
          <mxGeometry x="204" y="170" width="110" height="30" as="geometry" />
        </mxCell>
      </root>
    </mxGraphModel>
  </diagram>
</mxfile>
